<?xml version="1.0" encoding="UTF-8" standalone="no"?>
<svg
   width="675"
   viewBox="0 0 675 170"
   role="img"
   version="1.1"
   id="svg5"
   height="170"
   xmlns="http://www.w3.org/2000/svg"
   xmlns:svg="http://www.w3.org/2000/svg"
   xmlns:rdf="http://www.w3.org/1999/02/22-rdf-syntax-ns#"
   xmlns:cc="http://creativecommons.org/ns#"
   xmlns:dc="http://purl.org/dc/elements/1.1/">
  <defs
     id="defs5" />
  <title
     id="title1">Zephyr logo</title>
  <g
     id="g2"
     transform="translate(-6.6540135,5.25e-5)">
    <path
       style="font-weight:bold;font-size:143.508px;font-family:Lora;-inkscape-font-specification:'Lora, Bold';letter-spacing:-1.99319;fill:#29abe2;stroke-width:1.99319"
       d="m 186.27119,119.72888 v -10.7631 q 10.7631,-16.359909 21.38269,-32.719821 10.7631,-16.359911 21.5262,-32.719823 2.72665,-4.161732 5.02278,-7.462416 2.29613,-3.444191 5.02278,-6.601367 l -24.53987,-0.861048 q -7.89294,-0.287016 -13.05923,4.735763 -5.16628,4.879272 -5.16628,16.50342 h -9.47153 l 0.86105,-30.567203 h 73.04557 v 10.7631 l -41.33031,62.569486 q -3.01366,4.448748 -6.02733,8.897499 -3.01367,4.30524 -6.31435,8.17995 l 26.26196,0.57403 q 8.03645,0.14351 13.05923,-4.59225 5.02278,-4.87927 5.02278,-16.646929 h 9.47152 l -0.86104,30.710709 z m 117.97943,2.29613 q -10.47608,0 -18.51253,-4.59226 -8.03645,-4.73576 -12.48519,-13.20273 -4.44875,-8.610481 -4.44875,-20.234629 0,-10.04556 4.44875,-18.799547 4.44874,-8.753988 12.48519,-14.063784 8.17996,-5.453304 18.94306,-5.453304 6.02733,0 11.76765,1.722096 5.74032,1.578588 10.33258,5.596812 4.73576,4.018224 7.46241,10.906608 2.87016,6.888383 2.72666,17.220959 l -47.07063,0.861048 q 0,7.749432 1.86561,13.920276 2.00911,6.170845 6.45786,9.758545 4.44874,3.5877 11.91116,3.5877 2.87016,0 6.45786,-1.00456 3.73121,-1.00455 7.46242,-3.30068 3.87471,-2.43964 7.1754,-6.457862 l 6.45786,6.027332 q -5.16629,7.31891 -11.05012,11.19363 -5.88383,3.73121 -11.76766,5.02278 -5.74032,1.29157 -10.61959,1.29157 z M 290.76087,71.940719 h 26.40547 q -0.14351,-6.027336 -1.72209,-9.471527 -1.43508,-3.5877 -4.01823,-5.166288 -2.58314,-1.578588 -6.02733,-1.578588 -6.31435,0 -9.90205,4.592256 -3.5877,4.448748 -4.73577,11.624147 z m 53.2574,84.382701 v -9.32802 q 4.01822,0 5.74032,-1.57859 1.8656,-1.57858 2.29612,-4.59225 0.57404,-2.87016 0.57404,-6.60137 V 73.519307 q 0,-2.583144 0.1435,-5.74032 0.14351,-3.300683 0.43053,-6.457859 -2.29613,0.143508 -5.45331,0.287016 -3.15717,0 -4.73576,0.143508 V 50.845044 q 6.74488,0 11.19362,-0.71754 4.59226,-0.71754 7.1754,-1.722096 2.72666,-1.004556 3.73121,-1.865604 h 7.03189 q 0.28702,1.43508 0.43053,3.5877 0.14351,2.009112 0.28701,3.300684 5.02278,-4.30524 9.90206,-6.027336 5.02278,-1.722096 9.47152,-1.722096 8.61048,0 15.06834,4.448748 6.60137,4.448748 10.18907,12.628704 3.73121,8.179955 3.73121,19.230071 0,11.48064 -4.44875,20.665151 -4.44875,9.041 -12.48519,14.20729 -7.89294,5.16629 -18.65604,5.16629 -3.87472,0 -7.0319,-0.86105 -3.01366,-0.71754 -5.74032,-1.72209 v 13.77676 q 0,2.00912 -0.1435,5.59682 0,3.7312 -0.28702,7.03189 2.29613,-0.28702 5.02278,-0.43053 2.72665,0 4.16173,0 v 10.90661 z m 39.32119,-45.06151 q 6.60137,-0.14351 10.18907,-3.87472 3.7312,-3.87471 5.16628,-10.045555 1.43508,-6.170844 1.43508,-13.202736 0,-6.601368 -1.57858,-12.485196 -1.57859,-5.883828 -5.02278,-9.471527 -3.4442,-3.731208 -9.04101,-3.5877 -3.5877,0.143508 -6.60137,1.865604 -3.01366,1.578588 -5.02278,4.448748 0,4.448747 0,8.897495 0,4.30524 0,8.61048 0,4.30524 0,8.753988 0,4.30524 0,8.753987 0,4.305242 0,8.753992 1.57859,1.00455 4.44875,1.8656 2.87016,0.86105 6.02734,0.71754 z m 88.56038,-0.86105 q 4.01822,0 5.74032,-1.57859 1.8656,-1.57858 2.29612,-4.44874 0.57404,-3.01367 0.57404,-6.744879 l -0.14351,-20.378136 q -0.14351,-9.32802 -2.87016,-13.776767 -2.72665,-4.592256 -8.75399,-4.592256 -3.5877,0 -7.1754,1.578588 -3.44419,1.578588 -5.88383,3.731208 v 32.432807 q 0,2.009111 -0.14351,5.740315 -0.1435,3.5877 -0.43052,6.88839 2.43964,-0.28702 5.16629,-0.28702 2.72665,-0.14351 4.16173,-0.14351 v 10.90661 h -37.59909 v -9.32802 q 4.01822,0 5.74032,-1.57859 1.8656,-1.57858 2.29612,-4.44874 0.43053,-3.01367 0.43053,-6.744879 V 38.646864 q 0,-2.583144 0.14351,-5.883828 0.1435,-3.444191 0.43052,-6.601367 -2.29613,0.143508 -5.4533,0.287016 -3.01367,0 -4.59226,0.143508 V 15.685585 q 6.74488,0 11.19362,-0.71754 4.59226,-0.71754 7.1754,-1.722096 2.72665,-1.004556 3.73121,-1.865604 h 7.74943 v 42.334859 q 2.87016,-2.296128 6.60137,-4.018224 3.73121,-1.865604 7.60592,-2.87016 3.87472,-1.148064 6.74488,-1.148064 13.20274,0 18.65604,7.605924 5.59681,7.462416 5.59681,24.109343 v 19.230072 q 0,2.009111 -0.14351,5.740315 -0.1435,3.5877 -0.43052,6.88839 2.29613,-0.28702 5.02278,-0.28702 2.72665,-0.14351 4.30524,-0.14351 v 10.90661 h -37.7426 z m 57.41904,48.21869 q -5.4533,0 -9.32802,-3.30069 -3.73121,-3.15717 -3.73121,-8.46697 0,-3.87471 2.43964,-6.88838 2.58314,-2.87016 6.60137,-3.01367 3.15717,-0.14351 5.30979,2.00911 2.29613,2.29613 2.29613,6.17085 0,0.43052 0,0.86105 0,0.43052 -0.14351,1.00455 0.28702,0 0.71754,-0.14351 1.29157,-0.43052 2.72665,-2.43963 1.57859,-1.86561 3.01367,-5.02278 1.57859,-3.30069 3.01367,-7.46242 1.57859,-4.01822 2.72665,-8.46697 L 522.28699,77.968055 q -4.01823,-8.036448 -5.3098,-12.054672 -1.14806,-4.161731 -1.57859,-7.318907 l -6.60136,0.287016 V 47.974884 h 35.73349 v 9.184512 0 q -5.3098,0.574032 -5.88383,4.018224 -0.43052,3.444192 1.29157,7.175399 l 14.06379,32.145791 q 1.43508,-3.731207 3.7312,-11.480639 2.29613,-7.89294 5.45331,-17.077452 0.57403,-1.865604 1.43508,-4.30524 1.00455,-2.583143 2.15262,-5.022779 1.14806,-2.583144 2.43963,-4.161732 l -8.17995,0.430524 V 47.974884 h 25.54442 v 9.184512 q -4.44875,1.004556 -7.46242,5.453304 -2.87016,4.448747 -5.16628,10.906607 l -17.9385,51.232353 q -4.01823,11.62415 -7.60593,19.08657 -3.5877,7.60592 -8.03644,11.19362 -4.44875,3.5877 -11.05012,3.5877 z m 61.72445,-48.21869 q 4.01822,0 5.74032,-1.57859 1.72209,-1.57858 2.15262,-4.44874 0.57403,-3.01367 0.57403,-6.744879 V 73.519307 q 0,-2.583144 0.14351,-5.74032 0.14351,-3.300683 0.43052,-6.457859 -2.29613,0.143508 -5.4533,0.287016 -3.01367,0 -4.59226,0.143508 V 50.845044 h 5.74032 q 5.59681,0 10.18907,-1.43508 4.73576,-1.43508 6.17084,-2.87016 h 7.0319 q 0.28701,1.43508 0.43052,5.453304 0.14351,3.874716 0.14351,6.888384 3.87471,-4.735764 7.3189,-7.605924 3.4442,-2.87016 6.74488,-4.161732 3.44419,-1.43508 6.88838,-1.43508 5.02278,0 8.75399,2.87016 3.73121,2.726652 3.73121,9.041004 0,2.15262 -1.00456,4.592256 -1.00455,2.296128 -3.15717,3.874715 -2.15262,1.578588 -5.88383,1.578588 -2.87016,0 -5.88383,-1.722096 -3.01367,-1.722095 -3.44419,-6.601367 -2.87016,0 -5.74032,2.439636 -2.87016,2.296128 -5.16629,5.596811 -2.15262,3.157176 -3.01366,5.883828 v 23.391804 q 0,2.009111 -0.14351,5.740315 -0.14351,3.5877 -0.43053,6.88839 2.29613,-0.28702 5.02278,-0.28702 2.87016,-0.14351 4.30524,-0.14351 v 10.90661 h -37.59909 z"
       id="text4"
       aria-label="Zephyr" />
    <g
       id="g1"
       transform="matrix(0.81516448,0,0,0.81516448,17.840434,0.78320676)">
      <circle
         cx="93.204681"
         cy="85"
         r="72"
         fill="#29abe2"
         id="circle1" />
      <circle
         cx="93.204681"
         cy="85"
         r="13.646173"
         fill="#ffffff"
         id="circle3"
         style="stroke-width:1.70577" />
      <rect
         x="55.204681"
         y="110.57837"
         width="76"
         height="14"
         rx="3"
         fill="#ffffff"
         id="rect4" />
      <rect
         x="55.204681"
         y="45.421627"
         width="76"
         height="14"
         rx="3"
         fill="#ffffff"
         id="rect6" />
    </g>
  </g>
  <metadata
     id="metadata1">
    <rdf:RDF>
      <cc:Work
         rdf:about="">
        <dc:title>Zephyr logo</dc:title>
      </cc:Work>
    </rdf:RDF>
  </metadata>
</svg>
